<?xml version="1.0" standalone="no"?>
<!DOCTYPE svg PUBLIC "-//W3C//DTD SVG 20010904//EN"
 "http://www.w3.org/TR/2001/REC-SVG-20010904/DTD/svg10.dtd">
<svg version="1.0" xmlns="http://www.w3.org/2000/svg"
 width="1080.000000pt" height="1262.000000pt" viewBox="0 0 1080.000000 1262.000000"
 preserveAspectRatio="xMidYMid meet">

<g transform="translate(0.000000,1262.000000) scale(0.100000,-0.100000)"
fill="#000000" stroke="none">
<path d="M3096 12196 c-40 -23 -96 -104 -96 -138 0 -10 -4 -18 -10 -18 -5 0
-10 -9 -10 -19 0 -11 -6 -32 -14 -48 -32 -61 -56 -124 -56 -143 0 -27 28 -26
39 3 21 55 62 136 71 142 6 3 10 19 10 36 0 16 4 37 9 47 6 9 18 36 27 60 18
43 27 49 89 54 22 2 30 8 30 23 0 29 -41 29 -89 1z"/>
<path d="M4797 12197 c-42 -26 -79 -75 -103 -138 -9 -24 -27 -68 -40 -97 -13
-29 -24 -56 -24 -61 0 -4 -7 -22 -16 -40 -10 -21 -13 -36 -7 -42 18 -18 42 3
59 52 10 27 21 49 24 49 9 0 40 -68 40 -89 0 -51 50 -121 96 -135 28 -9 94 30
94 54 0 30 -18 33 -36 5 -24 -36 -59 -33 -84 8 -11 17 -20 41 -20 52 0 31 -46
121 -65 129 -16 6 -16 8 -1 31 9 13 16 34 16 47 0 12 12 48 27 80 27 58 53 78
87 65 21 -8 50 17 43 37 -9 23 -45 20 -90 -7z"/>
<path d="M6188 12191 c-46 -29 -64 -51 -98 -114 -11 -20 -27 -33 -41 -35 -36
-5 -48 -22 -21 -28 32 -9 32 -12 -35 -164 -58 -134 -76 -153 -132 -144 -42 6
-67 -7 -58 -30 4 -11 19 -16 43 -16 71 0 150 79 196 195 9 22 28 66 42 97 23
50 30 57 59 60 37 3 43 21 10 26 -28 4 -29 14 -2 69 25 51 63 75 98 61 29 -11
55 9 45 35 -10 26 -54 21 -106 -12z"/>
<path d="M6757 12201 c-57 -29 -76 -58 -127 -186 -4 -11 -20 -46 -34 -78 -14
-32 -26 -64 -26 -72 0 -7 -4 -17 -10 -20 -17 -10 -11 -35 8 -35 17 0 30 20 71
112 11 25 25 49 30 53 6 3 8 12 4 20 -3 8 4 34 15 58 10 23 22 52 26 64 11 36
53 64 81 53 29 -11 63 18 43 38 -17 17 -38 15 -81 -7z"/>
<path d="M8270 12160 c-9 -16 -8 -22 5 -27 20 -7 50 20 41 36 -11 17 -34 13
-46 -9z"/>
<path d="M1318 12136 c-43 -19 -88 -67 -109 -115 -20 -46 -18 -75 6 -85 16 -6
32 35 21 53 -16 25 42 102 93 122 38 15 45 -3 21 -57 -24 -54 -66 -146 -83
-181 -6 -13 -16 -23 -22 -23 -7 0 -18 -7 -26 -16 -19 -24 5 -34 65 -27 61 7
67 11 43 27 -22 17 -22 23 9 84 28 56 47 68 89 52 31 -12 39 -7 49 27 7 21 5
22 -43 16 -59 -7 -61 -2 -27 59 21 37 29 43 61 46 24 2 43 -2 55 -13 23 -21
40 -12 40 21 l0 24 -107 -1 c-61 0 -120 -6 -135 -13z"/>
<path d="M2712 12104 c-12 -8 -22 -21 -22 -29 0 -7 -14 -18 -32 -24 -29 -10
-30 -12 -15 -29 14 -15 13 -22 -7 -69 -12 -29 -25 -55 -29 -59 -11 -12 -8 -72
4 -80 14 -8 106 36 114 55 9 22 -2 24 -27 7 -29 -21 -48 -20 -47 2 1 33 63
137 84 141 28 5 37 23 18 36 -9 7 -14 19 -11 27 11 27 -6 39 -30 22z"/>
<path d="M2180 12050 c-33 -28 -35 -29 -42 -10 -9 24 -12 24 -44 4 -15 -10
-23 -23 -19 -33 5 -18 -10 -64 -43 -130 -27 -55 -28 -71 -3 -71 14 0 26 18 47
67 32 76 60 108 122 143 25 14 41 30 40 39 -5 25 -22 22 -58 -9z"/>
<path d="M1744 12037 c-115 -81 -141 -227 -40 -227 63 0 166 109 166 174 -1
70 -65 96 -126 53z m62 -21 c17 -18 17 -29 2 -75 -28 -82 -84 -126 -107 -83
-19 37 21 135 67 162 22 12 21 12 38 -4z"/>
<path d="M3098 12044 c-28 -14 -38 -34 -18 -34 12 0 13 -24 1 -48 -54 -108
-62 -134 -41 -147 14 -9 68 16 75 34 4 9 -1 12 -15 8 -11 -3 -20 -3 -20 -1 0
3 16 38 36 80 48 102 41 141 -18 108z"/>
<path d="M3412 12040 c-66 -41 -133 -170 -110 -213 13 -24 62 -19 113 13 51
32 47 53 -5 33 -52 -21 -68 -8 -46 35 9 17 16 38 16 46 0 16 47 76 60 76 18 0
17 -31 -2 -55 -27 -35 -17 -42 21 -15 42 29 55 55 41 80 -14 25 -46 25 -88 0z"/>
<path d="M4003 12043 c-41 -21 -56 -54 -40 -90 6 -16 16 -31 21 -34 14 -10 10
-60 -5 -70 -24 -15 -51 -10 -56 11 -8 30 -43 26 -43 -5 0 -32 43 -55 84 -44
70 19 97 87 56 139 -24 30 -25 53 -5 70 12 10 20 9 39 -3 20 -14 26 -14 35 -3
9 11 8 18 -4 30 -20 20 -41 19 -82 -1z"/>
<path d="M4793 12052 c-8 -5 -9 -13 -3 -22 15 -23 12 -37 -12 -60 l-22 -20 23
0 c27 0 71 42 71 68 0 33 -30 51 -57 34z"/>
<path d="M5115 12043 c-40 -22 -68 -55 -99 -119 -37 -75 -31 -114 16 -114 29
0 118 49 118 65 0 12 -5 13 -27 3 -16 -7 -33 -16 -40 -21 -30 -22 -44 24 -18
59 8 10 15 28 15 39 0 21 44 75 60 75 17 0 11 -36 -10 -55 -45 -41 -8 -49 40
-9 25 21 30 33 28 58 -2 25 -8 31 -28 33 -14 2 -38 -5 -55 -14z"/>
<path d="M5695 12034 c-62 -42 -90 -80 -100 -138 -14 -70 44 -109 108 -73 97
54 147 168 95 217 -29 27 -57 25 -103 -6z m56 -14 c23 -13 24 -37 2 -92 -21
-56 -52 -90 -78 -86 -16 2 -21 12 -23 45 -3 44 12 83 48 121 24 25 25 26 51
12z"/>
<path d="M6740 12039 c-17 -14 -21 -22 -12 -26 18 -7 15 -27 -12 -83 -47 -98
-41 -140 16 -109 44 24 65 56 28 44 -28 -9 -26 9 11 83 44 92 28 140 -31 91z"/>
<path d="M7398 12038 c-21 -12 -38 -29 -38 -37 0 -12 3 -12 12 -3 50 50 26
-44 -57 -225 -8 -17 -15 -34 -15 -39 0 -4 -11 -22 -26 -41 l-25 -33 62 0 61 0
-23 19 c-21 17 -22 22 -11 40 6 11 12 27 12 34 0 23 34 47 66 47 53 0 109 49
149 129 29 56 32 103 10 121 -13 11 -22 10 -53 -6 -20 -10 -40 -20 -43 -22 -4
-1 -9 6 -12 18 -7 25 -22 25 -69 -2z m142 -52 c0 -63 -68 -156 -114 -156 -21
0 -26 5 -26 25 0 34 35 94 73 128 39 34 67 36 67 3z"/>
<path d="M7796 12037 c-39 -22 -47 -44 -13 -40 26 4 27 8 -60 -197 -35 -82
-55 -120 -64 -120 -5 0 -9 -4 -9 -10 0 -5 23 -10 50 -10 54 0 56 1 38 29 -9
15 -7 28 10 65 21 43 24 46 61 46 59 0 112 46 156 137 29 60 32 95 9 114 -13
11 -22 10 -57 -9 -51 -27 -53 -27 -60 -2 -6 25 -13 25 -61 -3z m144 -51 c0
-49 -82 -166 -117 -166 -27 0 -32 35 -12 81 40 88 129 147 129 85z"/>
<path d="M8204 12046 c-36 -20 -54 -38 -48 -48 3 -5 15 -6 26 -2 11 3 18 2 16
-2 -19 -33 -68 -148 -68 -160 0 -27 28 -26 69 2 23 14 41 30 41 35 0 11 -33
-1 -42 -15 -20 -29 -5 33 22 91 45 96 39 130 -16 99z"/>
<path d="M8486 12045 c-10 -8 -20 -29 -22 -47 -1 -18 -16 -64 -33 -103 -17
-40 -26 -74 -21 -79 12 -12 39 0 46 21 17 55 41 101 63 127 25 27 69 51 78 42
3 -3 -11 -36 -31 -75 -55 -109 -43 -147 31 -96 34 24 35 25 11 19 -16 -3 -28
-2 -28 3 0 5 16 42 35 82 36 74 43 105 24 117 -12 7 -79 -25 -79 -38 0 -18
-21 -6 -30 17 -11 29 -17 30 -44 10z"/>
<path d="M8915 12041 c-58 -35 -125 -138 -125 -191 0 -49 70 -50 130 -1 43 36
34 51 -14 23 -31 -19 -37 -19 -50 -6 -14 13 -13 18 4 47 11 18 20 39 20 47 0
17 46 70 60 70 15 0 12 -28 -6 -56 -23 -34 -13 -38 27 -11 23 15 35 32 37 51
6 47 -31 59 -83 27z"/>
<path d="M9244 12049 c-11 -6 -28 -24 -38 -40 -17 -29 -17 -31 8 -74 31 -52
32 -71 7 -85 -30 -16 -48 -12 -54 11 -7 26 -40 22 -45 -5 -8 -39 58 -59 112
-35 13 6 32 26 41 43 16 30 16 34 1 63 -9 18 -20 35 -26 38 -16 10 -11 39 10
58 11 9 20 13 20 8 0 -13 37 -24 50 -16 7 4 7 13 0 26 -12 21 -51 24 -86 8z"/>
<path d="M9545 12036 c-23 -19 -29 -31 -28 -60 1 -21 8 -45 17 -55 31 -34 14
-81 -30 -81 -14 0 -25 8 -29 21 -8 24 -38 22 -43 -4 -5 -26 26 -46 69 -47 27
0 45 8 68 29 37 35 38 52 6 112 -24 46 -24 47 -5 64 19 17 21 17 40 0 16 -15
22 -16 35 -5 14 12 14 15 -1 31 -23 26 -63 24 -99 -5z"/>
<path d="M4370 12043 c-63 -12 -160 -127 -160 -190 0 -44 23 -52 71 -26 37 20
38 20 44 2 9 -26 32 -24 79 9 39 27 40 27 13 30 -15 2 -27 8 -27 14 0 6 16 44
35 85 19 41 35 77 35 79 0 5 -56 3 -90 -3z m20 -43 c0 -23 -44 -102 -68 -120
-53 -42 -78 -16 -46 48 26 53 114 108 114 72z"/>
<path d="M7095 12043 c-18 -5 -75 -42 -101 -68 -25 -24 -65 -106 -62 -126 5
-36 32 -46 73 -26 31 15 36 15 41 2 8 -21 30 -19 75 7 43 24 50 38 20 38 -11
0 -22 3 -24 8 -3 4 10 39 29 77 18 39 33 76 33 83 1 12 -43 15 -84 5z m20 -42
c7 -12 -29 -82 -60 -115 -24 -26 -59 -34 -69 -17 -10 15 24 83 56 113 30 28
62 36 73 19z"/>
<path d="M2130 11543 c-8 -3 -18 -11 -22 -17 -4 -6 -8 -1956 -8 -4333 0 -3911
2 -4323 16 -4337 14 -14 335 -16 3348 -16 2578 0 3335 3 3344 12 9 9 12 988
12 4345 0 4182 -1 4333 -18 4342 -20 10 -6644 14 -6672 4z m6625 -4343 l0
-4305 -3290 0 -3290 0 -6 1705 c-4 938 -7 1714 -7 1725 0 11 2 1177 4 2590 2
1414 6 2576 9 2583 3 10 667 12 3292 10 l3288 -3 0 -4305z"/>
<path d="M7347 11203 c-4 -3 -7 -35 -7 -71 l0 -64 -72 -72 c-67 -65 -88 -97
-140 -212 -11 -24 -5 -224 8 -273 5 -19 21 -43 34 -53 25 -18 27 -18 82 0 166
55 269 230 270 459 1 97 -2 114 -26 163 -39 82 -82 130 -115 130 -15 0 -31 -3
-34 -7z m-14 -453 c-8 -17 -19 -30 -24 -30 -12 0 -2 38 15 56 19 21 25 5 9
-26z"/>
<path d="M7124 10326 c-40 -43 -59 -79 -106 -198 -32 -80 -58 -157 -58 -172 0
-38 23 -87 53 -115 15 -13 24 -28 21 -32 -3 -5 -29 -9 -58 -9 -87 0 -109 -45
-57 -116 47 -66 87 -94 134 -94 23 0 73 -9 112 -19 105 -28 145 -7 145 76 0
72 -44 113 -147 137 -97 23 -87 41 17 33 71 -6 80 -4 102 16 39 35 51 97 42
228 -3 63 -6 131 -5 152 2 41 -22 90 -67 140 -40 43 -71 37 -128 -27z"/>
<path d="M6644 10199 c-16 -11 -38 -17 -48 -15 -38 10 -86 -35 -216 -204 -263
-341 -359 -467 -391 -513 -132 -194 -238 -353 -277 -417 -25 -41 -74 -118
-108 -171 -63 -96 -64 -96 -111 -102 -27 -4 -70 -11 -98 -17 -27 -6 -63 -13
-80 -16 -16 -3 -48 -9 -70 -14 -22 -4 -67 -14 -100 -21 -33 -7 -103 -23 -155
-37 -52 -13 -111 -28 -130 -32 -126 -31 -346 -101 -470 -150 -52 -21 -129 -50
-170 -65 -147 -52 -206 -77 -285 -119 -149 -80 -234 -134 -282 -180 -26 -25
-51 -46 -55 -46 -31 0 -203 -214 -231 -287 -9 -23 -25 -61 -36 -85 -10 -24
-27 -65 -36 -93 -9 -27 -21 -59 -25 -70 -5 -11 -11 -31 -14 -45 -2 -14 -10
-43 -16 -65 -29 -105 -40 -188 -40 -315 1 -148 24 -342 49 -405 5 -11 19 -51
31 -90 13 -38 36 -98 51 -133 16 -35 29 -65 29 -67 0 -7 71 -127 118 -200 142
-219 468 -559 654 -681 65 -43 94 -75 84 -92 -5 -8 -16 -66 -37 -194 -5 -32
-14 -86 -19 -120 -6 -35 -14 -95 -19 -134 -4 -39 -11 -76 -15 -82 -4 -6 -11
-60 -17 -119 -14 -159 -20 -203 -28 -203 -4 0 -12 15 -19 34 -14 37 -115 192
-141 216 -9 8 -42 47 -73 86 -93 117 -220 228 -322 280 -50 25 -104 56 -121
68 -42 31 -110 50 -134 37 -61 -33 -10 -152 101 -232 29 -21 56 -39 60 -39 4
0 40 -21 79 -46 79 -50 151 -120 204 -198 19 -28 57 -80 84 -115 27 -36 57
-83 67 -105 9 -23 25 -60 35 -83 11 -24 19 -46 19 -49 0 -4 22 -52 48 -108 27
-55 55 -119 63 -141 20 -58 66 -131 94 -149 54 -36 103 -8 146 84 26 53 27 60
23 200 -3 143 8 364 26 510 24 194 66 449 80 485 l10 26 47 -27 c27 -15 59
-35 73 -45 14 -9 61 -34 105 -56 44 -22 89 -44 100 -50 88 -46 322 -140 415
-167 272 -78 459 -116 713 -141 161 -17 248 -17 408 1 l57 6 7 -33 c15 -73 76
-237 146 -397 44 -98 62 -139 76 -172 41 -94 159 -329 180 -356 13 -17 23 -34
23 -37 0 -9 81 -130 122 -184 18 -23 53 -56 78 -72 25 -17 78 -56 119 -88 60
-47 81 -71 110 -128 20 -38 49 -89 64 -112 15 -24 27 -52 27 -63 0 -41 42 -93
102 -125 25 -14 31 -14 64 2 21 10 46 30 57 45 17 23 18 31 8 60 -7 18 -17 56
-22 83 -5 28 -14 68 -18 90 -24 115 -62 317 -83 435 -21 129 -36 243 -58 475
-6 55 -17 145 -25 200 -8 55 -24 165 -34 245 -10 80 -23 158 -29 173 -7 16
-12 68 -12 117 0 49 -4 92 -10 95 -12 8 -13 35 -1 35 32 0 323 189 418 272 48
41 183 176 248 248 57 61 175 242 175 266 0 8 10 34 23 57 24 45 38 88 57 177
13 62 8 279 -7 350 -11 49 -52 169 -63 185 -4 6 -14 35 -24 65 -58 187 -227
385 -434 507 -122 72 -197 105 -355 157 -124 41 -130 44 -97 51 46 10 155 51
345 131 17 6 50 20 75 31 69 28 116 54 225 125 119 77 192 142 249 217 41 56
41 56 41 146 0 78 -4 98 -27 148 -16 32 -28 60 -28 64 0 22 -112 155 -154 184
-133 89 -365 167 -571 190 -120 14 -155 20 -161 31 -9 14 16 202 37 285 29
110 26 165 -11 206 l-30 35 35 26 c35 27 35 28 28 84 -7 67 -26 89 -103 129
-47 24 -67 27 -139 27 -75 0 -86 -3 -102 -23 -27 -33 -24 -56 16 -100 42 -46
44 -55 9 -47 -85 22 -149 -141 -190 -484 -10 -85 -11 -85 -99 -82 l-77 4 7 60
c4 34 11 75 16 92 5 17 16 69 24 116 24 144 53 290 81 410 41 181 76 342 81
378 3 18 9 35 14 38 5 3 9 23 9 44 0 21 5 42 10 45 6 3 10 29 10 57 0 57 -25
100 -77 130 -28 16 -31 16 -59 -3z m-140 -436 c-3 -16 -8 -35 -11 -43 -3 -8
-9 -33 -13 -55 -5 -22 -16 -69 -25 -105 -16 -66 -60 -289 -90 -460 -9 -52 -20
-114 -26 -137 -5 -23 -9 -58 -9 -77 0 -36 0 -36 -42 -36 -88 0 -385 -21 -427
-31 -24 -5 -46 -7 -49 -5 -14 14 455 703 508 746 9 8 91 119 130 177 39 58 64
70 54 26z m576 -436 c0 -4 -13 -20 -30 -34 -22 -18 -30 -33 -30 -58 0 -19 -4
-36 -9 -39 -4 -3 -16 -45 -25 -93 -9 -49 -21 -110 -26 -136 -6 -27 -10 -73
-10 -102 0 -37 -5 -59 -17 -70 -26 -26 -35 3 -22 66 7 30 15 79 20 109 17 112
26 156 47 217 23 66 29 128 12 138 -5 3 -10 12 -10 19 0 10 11 10 50 2 28 -5
50 -14 50 -19z m-794 -729 c-11 -55 -23 -125 -55 -338 -17 -113 -35 -230 -40
-260 -35 -201 -90 -1082 -91 -1430 0 -423 33 -802 95 -1085 20 -90 67 -344 69
-370 1 -18 -8 -21 -79 -28 -145 -13 -386 5 -645 49 -105 17 -537 147 -556 167
-4 4 -14 7 -23 7 -19 0 -448 217 -486 245 -30 23 -34 -9 36 275 22 91 45 183
49 205 11 52 33 122 43 131 4 4 7 18 7 30 0 13 4 33 9 46 5 13 14 43 21 68 22
81 41 145 49 165 5 11 14 34 21 50 16 40 93 258 131 370 16 50 34 99 38 110
29 68 55 135 71 184 28 85 65 180 93 241 14 30 37 83 51 117 34 82 188 390
236 473 36 61 54 94 104 182 12 20 37 62 56 95 19 32 39 67 45 78 6 11 22 38
36 60 14 22 33 56 44 77 39 76 46 81 121 84 38 2 123 8 189 14 126 11 186 15
299 18 l68 2 -6 -32z m374 5 c5 -4 4 -44 -1 -88 -5 -44 -12 -177 -14 -295 -3
-118 -10 -251 -15 -295 -5 -44 -12 -109 -15 -145 -14 -157 -20 -178 -53 -213
-46 -47 -45 -99 3 -154 l35 -41 0 -194 c0 -195 13 -438 30 -558 5 -36 12 -106
14 -157 l5 -92 -42 -25 c-113 -67 -197 -190 -197 -289 0 -91 58 -235 123 -307
36 -41 173 -126 220 -138 72 -18 170 -29 227 -27 80 3 188 58 268 137 84 81
115 129 137 208 29 105 25 153 -19 245 -54 112 -122 179 -200 194 -30 7 -31 9
-38 71 -15 137 -46 598 -51 770 l-2 45 55 -3 c56 -3 147 -27 164 -43 6 -5 16
-9 23 -9 19 0 113 -47 212 -105 140 -82 260 -215 297 -328 9 -29 22 -65 29
-82 45 -111 69 -239 62 -336 -12 -156 -24 -198 -95 -339 -53 -104 -64 -118
-198 -264 -109 -120 -213 -207 -344 -291 -100 -64 -332 -174 -450 -214 -52
-18 -104 -36 -115 -41 -23 -10 -220 -70 -229 -70 -3 0 -6 9 -6 21 0 11 -6 41
-14 67 -26 85 -80 345 -88 422 -4 41 -12 98 -18 125 -58 281 -66 978 -19 1625
19 257 44 510 65 655 8 61 20 146 24 190 5 44 16 118 25 165 9 47 18 110 22
140 8 79 14 84 102 77 40 -3 77 -9 81 -14z m265 -42 c3 -10 1 -31 -5 -47 -15
-38 -31 -155 -39 -281 -10 -159 -23 -135 -17 32 10 274 15 315 36 315 10 0 21
-8 25 -19z m-1535 -29 c0 -10 -4 -22 -9 -27 -14 -14 -111 -174 -179 -295 -85
-153 -111 -202 -216 -415 -62 -126 -130 -275 -150 -330 -21 -55 -48 -127 -61
-160 -13 -33 -30 -80 -38 -105 -9 -25 -21 -58 -27 -75 -24 -58 -33 -80 -40
-100 -5 -11 -18 -44 -30 -74 -12 -30 -32 -86 -45 -125 -13 -39 -41 -123 -63
-186 -22 -63 -52 -154 -66 -202 -16 -51 -32 -88 -39 -88 -7 0 -23 14 -36 31
-26 35 -165 128 -236 159 -56 24 -188 27 -249 6 -53 -18 -105 -70 -144 -143
-34 -64 -38 -96 -22 -152 5 -19 7 -37 4 -40 -7 -7 -84 79 -84 93 0 6 -9 19
-19 30 -43 47 -170 329 -193 431 -25 105 -37 382 -23 495 8 58 30 141 69 250
13 36 29 83 36 105 19 63 41 106 75 155 18 25 40 59 49 77 19 38 98 116 179
176 91 68 307 171 487 232 91 31 181 62 200 69 19 8 69 24 110 36 147 44 175
53 198 61 13 5 34 9 47 9 13 0 34 4 47 9 55 21 227 66 293 75 72 11 148 26
153 31 11 11 22 4 22 -13z m1915 -1 c83 -10 214 -41 275 -65 19 -8 57 -23 84
-32 66 -24 142 -86 162 -132 45 -103 38 -147 -37 -219 -64 -61 -294 -197 -433
-255 -119 -49 -256 -98 -278 -98 -16 0 5 412 31 615 6 44 13 103 16 130 10 78
10 78 58 71 23 -4 78 -10 122 -15z m-455 -812 c0 -44 -3 -59 -12 -56 -18 6
-11 117 7 117 3 0 5 -27 5 -61z m7 -554 c3 -137 7 -211 23 -440 16 -224 23
-515 12 -515 -5 0 -12 44 -16 98 -3 53 -10 142 -16 197 -26 253 -30 315 -36
548 -6 240 -6 249 12 245 17 -3 19 -15 21 -133z m316 -1050 c38 -79 11 -164
-74 -238 -59 -52 -139 -87 -198 -87 -92 0 -222 67 -253 130 -25 49 -24 150 0
180 20 24 42 20 42 -6 0 -31 74 -123 115 -143 113 -55 113 -55 190 -24 93 38
135 90 135 169 0 64 18 72 43 19z m-3118 -196 c43 -20 65 -24 150 -24 113 -1
108 3 86 -85 -6 -25 -13 -57 -16 -72 -4 -19 -12 -28 -24 -28 -11 0 -21 3 -23
8 -3 7 -71 64 -138 114 -58 44 -120 103 -120 116 0 12 4 11 85 -29z m2968
-911 c5 -74 18 -189 38 -331 8 -53 8 -82 2 -88 -7 -7 -13 2 -18 28 -4 21 -10
43 -15 48 -4 6 -10 33 -14 60 -11 97 -24 163 -35 183 -6 11 -11 39 -11 61 0
22 -4 43 -10 46 -18 11 -10 34 18 49 15 8 30 15 33 16 4 0 9 -33 12 -72z
m-229 -80 c18 -133 25 -177 41 -238 9 -36 18 -76 21 -90 3 -14 9 -34 14 -45 4
-11 13 -47 20 -80 7 -33 16 -71 20 -85 4 -14 15 -61 25 -105 36 -170 71 -295
111 -404 13 -35 21 -68 18 -72 -4 -7 -114 145 -114 158 0 3 -16 28 -35 57 -29
43 -105 197 -145 291 -4 11 -20 46 -34 78 -14 32 -26 63 -26 70 0 7 -4 17 -8
23 -5 5 -16 28 -25 51 -9 23 -25 61 -35 85 -54 122 -104 266 -99 281 3 11 194
74 228 76 12 1 18 -12 23 -51z"/>
<path d="M4870 6093 c-76 -14 -165 -58 -203 -100 -27 -31 -67 -139 -67 -183 0
-80 64 -191 143 -247 45 -33 155 -80 240 -103 141 -38 335 44 362 153 4 15 11
29 15 32 5 3 14 30 20 61 11 54 11 57 -26 130 -40 81 -104 148 -171 179 -110
53 -256 89 -313 78z"/>
<path d="M5573 5801 c-63 -21 -127 -64 -159 -106 -24 -31 -54 -136 -54 -189 0
-97 131 -236 254 -269 145 -39 213 -49 261 -36 22 6 51 13 65 16 36 9 135 78
159 112 28 39 53 150 45 201 -4 23 -23 67 -44 98 -60 93 -130 137 -276 171
-111 25 -182 26 -251 2z m303 -175 c76 -40 124 -97 124 -148 0 -41 -50 -92
-111 -111 -97 -32 -200 -15 -297 46 -162 104 -68 264 149 253 52 -2 80 -10
135 -40z"/>
<path d="M7864 4905 c-18 -19 -36 -35 -40 -35 -4 0 -18 10 -32 23 -37 34 -111
31 -150 -6 -38 -36 -45 -73 -43 -212 2 -89 5 -112 18 -122 12 -10 75 -13 229
-13 182 0 213 2 225 16 21 26 17 269 -5 312 -23 44 -71 72 -125 72 -37 0 -49
-5 -77 -35z m126 -92 c17 -22 20 -38 18 -97 l-3 -71 -65 0 -65 0 -3 71 c-3 84
19 124 68 124 19 0 36 -9 50 -27z m-211 -19 c16 -20 21 -41 21 -85 0 -53 -2
-59 -24 -65 -13 -3 -38 -4 -57 -2 l-34 3 -3 69 c-2 53 1 72 14 87 24 27 59 24
83 -7z"/>
<path d="M7704 4265 c-68 -30 -113 -106 -114 -192 0 -59 12 -92 53 -146 45
-59 97 -81 192 -81 162 -2 257 81 257 223 0 96 -38 163 -113 196 -32 15 -44
16 -65 6 -36 -16 -30 -60 11 -81 56 -28 85 -69 85 -118 0 -87 -76 -140 -185
-129 -70 7 -115 32 -138 77 -29 56 -17 97 44 151 44 39 51 50 46 72 -8 30 -35
38 -73 22z"/>
<path d="M7900 3568 c-69 -28 -143 -58 -165 -67 -22 -9 -62 -27 -90 -41 -45
-22 -50 -29 -53 -62 -3 -31 2 -40 31 -62 19 -14 40 -26 48 -26 8 0 19 -4 25
-9 5 -5 27 -14 49 -21 22 -7 54 -18 70 -26 92 -40 212 -84 231 -84 28 0 46 23
42 52 -2 17 -18 30 -60 50 l-58 28 0 93 0 94 43 18 c76 33 96 65 61 99 -23 23
-37 20 -174 -36z m-10 -178 c0 -39 -4 -60 -12 -60 -19 0 -158 54 -158 61 0 10
120 57 148 58 20 1 22 -3 22 -59z"/>
<path d="M3726 2695 c-18 -27 -20 -44 -7 -64 13 -21 51 22 51 59 0 37 -21 40
-44 5z"/>
<path d="M3702 2585 c-7 -14 -12 -41 -12 -59 0 -17 -7 -41 -15 -52 -8 -10 -15
-27 -15 -36 0 -10 -5 -18 -11 -18 -7 0 -9 13 -5 38 4 20 10 59 13 85 8 72 -15
60 -100 -53 -53 -70 -79 -96 -97 -98 -51 -5 -120 -28 -199 -65 -41 -20 -91
-108 -91 -160 0 -46 29 -104 83 -162 50 -55 57 -68 57 -103 0 -23 -5 -44 -11
-48 -6 -3 -26 10 -45 30 -30 32 -64 48 -64 30 0 -4 18 -27 41 -51 22 -24 45
-57 50 -73 11 -31 37 -47 44 -27 2 6 5 40 7 74 3 35 8 66 11 70 4 4 29 -1 55
-11 26 -11 83 -25 127 -32 44 -7 81 -13 81 -13 1 -1 10 -24 20 -52 28 -76 161
-221 140 -152 -3 10 -12 68 -21 130 l-16 112 59 58 c65 64 78 97 61 159 -12
41 -58 94 -83 94 -31 0 -15 28 34 58 38 24 50 37 50 56 0 29 -52 76 -85 76
-37 0 -43 18 -34 110 5 47 7 91 4 98 -7 19 -21 14 -33 -13z m-87 -124 c-9 -35
-23 -51 -46 -51 -24 0 -24 2 6 51 28 43 51 43 40 0z m-29 -138 c-4 -27 -9
-114 -12 -194 l-6 -147 -42 2 c-29 1 -46 7 -59 24 -20 24 -47 28 -79 11 -19
-10 -20 -9 -13 23 3 18 10 42 15 53 5 11 21 54 36 95 15 41 42 99 60 128 31
47 37 52 70 52 l36 0 -6 -47z m-132 10 c-4 -16 -18 -44 -31 -63 -12 -19 -23
-42 -23 -52 0 -9 -4 -19 -8 -22 -4 -3 -14 -28 -22 -56 -16 -57 -28 -67 -60
-50 -18 9 -25 8 -41 -6 -18 -16 -21 -16 -36 -2 -9 9 -18 39 -20 65 -9 93 44
157 152 184 28 7 54 17 60 21 21 18 35 8 29 -19z m191 -20 c-2 -27 -4 -97 -4
-156 -1 -97 -3 -108 -18 -105 -15 3 -17 14 -15 83 5 150 14 225 27 225 9 0 12
-15 10 -47z m145 28 c24 -19 24 -20 6 -40 -19 -21 -71 -43 -80 -34 -8 9 -8 78
1 86 12 13 48 7 73 -12z m-10 -190 c33 -32 45 -69 36 -106 -14 -57 -120 -140
-168 -133 -26 4 -46 54 -29 71 9 9 15 8 22 -5 16 -28 73 -24 97 7 22 28 19 55
-9 81 -14 12 -19 31 -19 66 0 42 3 48 21 48 11 0 33 -13 49 -29z m-80 -151 c0
-5 -7 -10 -15 -10 -8 0 -15 5 -15 10 0 6 7 10 15 10 8 0 15 -4 15 -10z m-320
-23 c0 -8 21 -20 48 -28 26 -8 46 -18 44 -24 -4 -13 -56 -9 -60 5 -2 5 -10 10
-17 10 -18 0 -47 29 -40 41 9 14 25 11 25 -4z m160 -32 c0 -8 -4 -15 -9 -15
-5 0 -14 7 -21 15 -10 13 -9 15 9 15 12 0 21 -6 21 -15z m50 -40 c0 -8 -6 -15
-14 -15 -20 0 -29 17 -14 23 22 9 28 7 28 -8z m89 -82 c6 -20 8 -41 4 -46 -8
-13 -45 64 -38 81 8 21 23 5 34 -35z"/>
<path d="M4533 2085 c-43 -18 -68 -57 -54 -84 17 -31 13 -51 -14 -73 -36 -28
-35 -89 1 -117 38 -30 84 -36 130 -16 33 14 45 14 77 4 30 -10 40 -10 50 0 9
10 6 18 -17 38 -25 21 -28 28 -18 44 19 29 15 59 -7 59 -10 0 -21 -7 -25 -15
-8 -22 -44 -18 -51 6 -5 14 1 28 20 46 35 36 30 70 -14 100 -39 27 -37 26 -78
8z m52 -65 c0 -18 -6 -26 -22 -28 -18 -3 -23 1 -23 21 0 28 9 39 30 35 9 -2
15 -14 15 -28z m-11 -139 c16 -17 17 -23 6 -36 -18 -21 -59 -15 -76 10 -12 18
-11 24 2 43 17 24 35 20 68 -17z"/>
<path d="M5678 2089 c-16 -6 -31 -22 -37 -41 -6 -17 -19 -37 -28 -44 -17 -12
-17 -14 3 -36 15 -18 21 -39 22 -93 3 -75 9 -89 38 -83 16 3 20 16 24 88 5 80
6 85 30 91 40 10 50 -7 50 -82 0 -73 11 -94 55 -105 27 -7 65 11 65 30 0 7
-13 16 -30 20 -29 5 -30 7 -30 65 0 51 3 61 20 66 11 3 20 15 20 25 0 9 -9 20
-20 23 -15 4 -20 14 -20 36 0 57 -55 50 -62 -7 -3 -23 -8 -27 -41 -30 -32 -3
-38 0 -35 14 1 9 18 22 37 29 l35 11 -24 17 c-27 19 -34 20 -72 6z"/>
<path d="M4192 2078 c-6 -6 -12 -25 -12 -40 0 -15 -4 -28 -10 -28 -5 0 -10 -9
-10 -19 0 -11 5 -23 10 -26 6 -3 10 -35 10 -71 0 -56 4 -68 25 -89 27 -28 33
-29 69 -15 33 12 33 28 1 40 -14 5 -25 13 -26 17 -6 73 -3 107 13 117 21 13
24 46 4 46 -8 0 -18 16 -23 37 -9 40 -30 52 -51 31z"/>
<path d="M4931 2072 c-44 -24 -71 -74 -71 -130 0 -82 47 -140 126 -156 59 -13
144 41 144 91 0 39 -26 38 -63 -1 -43 -45 -85 -49 -116 -9 -53 67 -29 155 47
169 28 6 37 2 65 -29 26 -27 37 -33 50 -25 25 14 21 41 -13 73 -39 37 -118 46
-169 17z"/>
<path d="M3992 1998 c-14 -14 -17 -175 -3 -196 5 -8 17 -12 27 -10 16 3 20 14
22 68 4 77 22 104 63 95 20 -5 28 -2 33 12 12 29 -52 60 -69 33 -4 -6 -15 -6
-31 0 -31 12 -28 12 -42 -2z"/>
<path d="M5196 1994 c-9 -24 -7 -177 3 -192 5 -8 17 -12 27 -10 16 3 20 15 24
69 6 75 22 101 59 97 22 -3 26 1 26 22 0 20 -6 26 -28 28 -16 2 -34 -1 -40 -7
-8 -6 -18 -6 -27 -1 -22 14 -37 12 -44 -6z"/>
<path d="M5386 1989 c-44 -35 -27 -75 19 -45 31 20 95 22 95 2 0 -8 -17 -20
-37 -26 -98 -30 -126 -57 -104 -98 18 -34 63 -46 105 -28 29 12 42 13 62 4 15
-7 28 -8 34 -2 5 5 6 47 3 93 -7 103 -22 121 -99 121 -37 0 -59 -6 -78 -21z
m114 -124 c0 -19 -43 -40 -64 -32 -9 4 -16 13 -16 21 0 13 14 18 68 25 6 0 12
-6 12 -14z"/>
<path d="M5455 1653 c-29 -7 -45 -23 -45 -44 0 -10 -9 -23 -20 -29 -25 -13
-25 -31 -1 -52 16 -13 18 -26 14 -79 -5 -71 10 -108 41 -96 13 5 16 21 16 76
0 78 6 101 26 101 21 0 17 38 -6 50 -26 14 -17 30 16 30 21 0 44 24 33 35 -8
8 -55 13 -74 8z"/>
<path d="M6493 1650 c-22 -9 -23 -13 -23 -154 l0 -146 26 -6 c14 -4 61 -4 105
-2 70 4 84 8 107 31 34 35 35 86 2 122 -22 23 -22 26 -7 43 23 26 21 56 -6 88
-21 25 -31 27 -103 30 -43 2 -89 -1 -101 -6z m131 -53 c10 -7 17 -22 15 -32
-8 -38 -99 -36 -99 3 0 39 48 55 84 29z m-4 -117 c11 -6 24 -19 30 -30 14 -26
-19 -60 -59 -60 -32 0 -44 12 -47 45 -4 48 32 69 76 45z"/>
<path d="M6787 1643 c-4 -3 -7 -70 -7 -149 0 -120 2 -143 16 -148 8 -3 24 -1
35 4 16 9 19 22 19 79 0 72 12 96 47 89 15 -3 18 -15 21 -63 4 -94 8 -105 41
-105 36 0 43 22 36 116 -4 60 -9 72 -33 92 -25 21 -45 24 -91 11 -9 -2 -16 4
-18 16 -11 59 -14 65 -37 65 -12 0 -26 -3 -29 -7z"/>
<path d="M7780 1629 c0 -11 -8 -34 -17 -50 -15 -25 -16 -33 -4 -51 7 -12 15
-51 17 -86 4 -78 18 -97 75 -97 58 0 77 37 24 47 -17 3 -20 12 -23 63 -3 52 0
61 20 77 l23 19 -22 16 c-13 8 -23 24 -23 33 0 36 -12 50 -41 50 -23 0 -29 -5
-29 -21z"/>
<path d="M5550 1565 c-14 -17 -21 -173 -8 -197 11 -22 44 -23 52 -2 3 9 6 42
6 74 0 49 3 61 20 70 11 6 25 8 30 5 11 -7 50 12 50 24 0 5 -12 16 -26 26 -23
15 -30 15 -51 4 -19 -10 -29 -10 -43 -1 -14 9 -21 8 -30 -3z"/>
<path d="M5765 1566 c-42 -18 -65 -57 -65 -110 0 -37 6 -50 32 -76 30 -30 35
-32 87 -28 43 4 59 10 77 32 52 60 35 143 -36 178 -42 21 -56 21 -95 4z m78
-50 c35 -27 13 -126 -30 -126 -23 0 -53 39 -53 68 0 34 25 72 48 72 9 0 25 -7
35 -14z"/>
<path d="M6067 1569 c-10 -6 -32 -7 -49 -4 -42 10 -48 -3 -48 -105 0 -92 7
-114 36 -108 16 3 19 14 22 74 2 55 7 76 22 89 36 32 50 13 50 -68 0 -82 16
-111 48 -90 13 7 18 28 20 81 3 77 19 105 50 85 13 -7 18 -30 22 -89 4 -67 8
-79 24 -82 28 -6 36 15 36 101 0 72 -2 80 -26 102 -31 29 -44 31 -84 10 -27
-14 -33 -14 -60 0 -34 18 -39 18 -63 4z"/>
<path d="M7098 1567 c-29 -11 -54 -49 -44 -66 8 -13 56 -15 56 -3 0 5 11 14
24 20 18 8 28 7 42 -2 16 -13 15 -15 -14 -30 -17 -9 -40 -16 -52 -16 -26 0
-70 -43 -70 -68 0 -43 76 -74 128 -53 18 8 37 9 53 3 44 -17 48 -8 42 86 -3
48 -10 95 -14 104 -9 18 -69 39 -104 37 -11 -1 -32 -6 -47 -12z m87 -136 c7
-12 -22 -41 -40 -41 -23 0 -29 22 -10 37 22 15 41 17 50 4z"/>
<path d="M7332 1567 c-11 -14 -24 -171 -16 -192 4 -9 15 -20 24 -25 29 -16 50
13 50 68 0 77 8 92 44 92 30 0 56 15 56 32 0 4 -14 14 -30 23 -22 12 -35 13
-49 5 -13 -6 -28 -7 -45 -1 -17 7 -27 6 -34 -2z"/>
<path d="M7553 1564 c-31 -13 -50 -45 -38 -64 9 -14 36 -12 54 4 26 23 71 25
71 3 0 -8 -23 -22 -52 -31 -84 -27 -108 -64 -73 -111 11 -14 26 -19 58 -17 23
1 68 2 100 2 l57 1 -6 82 c-6 93 -17 122 -48 132 -38 13 -90 13 -123 -1z m85
-140 c-5 -25 -35 -41 -49 -27 -9 9 -9 16 1 28 17 21 52 20 48 -1z"/>
<path d="M3323 753 c-7 -2 -13 -22 -13 -42 0 -24 -7 -44 -18 -54 -21 -19 -48
-22 -57 -7 -9 14 -58 13 -73 -2 -9 -9 -17 -9 -36 2 -21 11 -28 11 -41 0 -22
-18 -22 -222 1 -244 12 -12 20 -13 35 -6 16 9 19 22 19 78 0 90 14 116 65 120
22 2 46 8 53 14 9 8 18 6 32 -7 16 -14 20 -33 22 -104 3 -84 4 -86 32 -100 41
-19 100 -5 104 27 3 19 -1 22 -32 22 l-36 0 0 75 c0 71 1 76 25 85 14 5 25 16
25 25 0 9 -11 20 -25 25 -19 7 -25 17 -25 39 0 16 -7 37 -16 45 -16 17 -21 18
-41 9z"/>
<path d="M4284 749 c-5 -9 -10 -52 -14 -113 0 -4 -11 -1 -25 8 -39 26 -97 21
-127 -11 -51 -55 -60 -101 -33 -167 27 -63 90 -89 151 -60 27 13 39 15 42 6 5
-15 49 -16 58 -1 12 20 6 320 -7 335 -14 17 -35 18 -45 3z m-26 -178 c17 -21
14 -72 -6 -99 -24 -31 -68 -27 -94 9 -28 37 -11 103 30 117 28 10 44 3 70 -27z"/>
<path d="M5258 750 c-10 -6 -22 -28 -28 -49 -6 -25 -17 -41 -30 -44 -27 -7
-25 -31 5 -51 22 -15 24 -23 27 -108 3 -89 4 -93 27 -96 34 -5 41 12 41 109 0
86 0 87 29 99 22 9 34 9 50 0 18 -9 21 -20 21 -83 0 -40 6 -83 13 -97 16 -33
67 -47 107 -30 41 17 36 44 -8 48 -17 2 -32 4 -33 5 0 1 -3 30 -5 64 -4 53 -1
66 16 83 22 22 42 25 71 10 17 -9 19 -22 19 -99 0 -93 10 -116 47 -109 16 3
18 16 21 96 3 88 4 93 27 104 32 15 32 46 0 58 -14 5 -25 13 -25 18 0 17 25
32 52 32 21 0 28 5 28 19 0 22 -19 31 -66 31 -38 0 -70 -26 -80 -64 -3 -14
-16 -32 -28 -40 -21 -13 -26 -13 -55 5 -23 14 -31 26 -31 48 0 32 -22 56 -45
48 -8 -4 -18 -25 -21 -47 -7 -44 -40 -78 -58 -60 -6 6 -18 10 -28 10 -11 0
-18 7 -18 19 0 20 18 31 52 31 14 0 19 6 16 23 -3 19 -10 22 -48 24 -25 2 -53
-2 -62 -7z"/>
<path d="M6712 748 c-18 -18 -17 -318 2 -343 13 -18 15 -18 40 -2 24 16 28 16
57 1 53 -27 118 1 144 62 21 50 19 90 -7 135 -32 57 -75 69 -155 44 -21 -7
-23 -4 -23 34 0 68 -27 100 -58 69z m154 -156 c16 -10 34 -48 34 -70 0 -33
-38 -72 -71 -72 -54 0 -77 91 -33 134 16 17 51 21 70 8z"/>
<path d="M7027 753 c-4 -3 -7 -84 -7 -179 0 -150 2 -173 16 -178 35 -13 53 21
56 107 3 79 4 82 31 91 50 18 62 0 65 -95 3 -92 17 -118 53 -98 17 8 19 22 19
105 0 92 -1 97 -29 125 -21 21 -39 29 -65 29 -19 0 -38 -4 -41 -10 -3 -5 -13
-10 -21 -10 -10 0 -14 13 -14 48 0 26 -5 53 -12 60 -13 13 -41 16 -51 5z"/>
<path d="M8146 744 c-9 -8 -16 -30 -16 -49 0 -20 -6 -35 -15 -39 -19 -7 -19
-25 0 -46 9 -10 17 -46 20 -94 3 -43 10 -86 15 -96 17 -32 102 -37 122 -7 11
18 -3 37 -28 37 -31 0 -42 24 -38 87 3 58 9 73 29 73 15 0 26 23 17 37 -4 5
-15 12 -24 16 -10 3 -20 22 -24 44 -10 53 -30 66 -58 37z"/>
<path d="M1409 644 c-10 -13 -8 -29 15 -97 40 -117 53 -144 76 -150 29 -7 47
15 66 81 18 62 31 84 37 61 38 -127 56 -156 90 -143 9 3 20 17 25 32 6 15 22
57 36 95 14 37 26 74 26 82 0 18 14 20 27 3 5 -7 22 -51 37 -98 28 -85 48
-120 71 -120 18 0 41 31 49 65 9 42 27 85 35 85 4 0 15 -26 25 -57 22 -70 32
-83 61 -83 28 0 37 12 58 75 9 28 25 73 35 102 20 51 20 52 1 69 -28 25 -45 5
-65 -79 -10 -38 -22 -67 -29 -67 -14 0 -25 22 -25 48 0 34 -33 102 -52 108
-29 9 -48 -15 -67 -87 -9 -34 -21 -64 -27 -66 -7 -2 -19 26 -30 67 -21 81 -43
103 -75 74 -18 -17 -20 -17 -33 1 -26 36 -47 8 -76 -102 -14 -54 -36 -56 -43
-3 -7 57 -38 114 -63 118 -23 3 -45 -33 -66 -110 -7 -27 -15 -48 -19 -48 -8 0
-39 91 -39 113 0 13 -30 47 -42 47 -3 0 -11 -7 -19 -16z"/>
<path d="M2225 638 c-5 -21 23 -119 38 -135 4 -3 7 -14 7 -23 0 -25 28 -77 45
-84 8 -3 21 -3 29 0 14 5 38 62 50 117 9 40 34 34 42 -10 15 -83 43 -120 78
-107 15 6 84 172 87 209 4 45 -1 56 -23 53 -17 -2 -26 -14 -37 -48 -8 -25 -21
-62 -29 -84 -17 -41 -16 -42 -41 35 -6 19 -11 42 -11 51 0 18 -31 48 -51 48
-19 0 -32 -23 -54 -95 -10 -33 -21 -64 -25 -68 -4 -4 -13 14 -20 40 -24 89
-41 123 -61 123 -11 0 -21 -9 -24 -22z"/>
<path d="M2803 640 c-23 -14 -33 -27 -33 -45 0 -31 16 -32 70 -4 34 18 45 20
66 10 38 -17 24 -35 -37 -47 -99 -20 -139 -66 -105 -120 31 -47 97 -53 154
-16 22 14 25 14 34 -1 11 -20 54 -23 61 -4 2 6 1 21 -4 32 -4 11 -8 53 -8 93
-1 66 -4 75 -27 97 -35 33 -122 35 -171 5z m127 -138 c0 -28 -34 -54 -67 -50
-42 5 -43 35 -1 53 46 20 68 19 68 -3z"/>
<path d="M3518 644 c-48 -26 -58 -74 -15 -74 11 0 28 6 36 14 25 23 64 28 85
13 26 -19 14 -34 -37 -42 -93 -15 -137 -56 -117 -110 19 -51 100 -67 154 -29
16 11 23 10 44 -7 25 -20 26 -20 45 0 16 16 18 24 9 52 -5 19 -10 61 -11 94 0
52 -4 63 -26 83 -21 17 -38 22 -83 22 -31 -1 -69 -7 -84 -16z m122 -147 c0
-44 -90 -66 -98 -24 -2 12 7 22 30 32 49 21 68 19 68 -8z"/>
<path d="M3792 648 c-8 -8 -12 -50 -12 -125 0 -96 3 -113 17 -122 11 -6 24 -6
35 0 15 8 18 23 18 85 0 66 3 78 25 99 28 29 34 30 59 12 15 -11 18 -27 17
-89 -1 -83 18 -125 51 -113 20 8 27 49 24 144 -3 69 -5 76 -32 98 -32 25 -69
29 -109 11 -21 -9 -31 -9 -46 0 -24 15 -32 15 -47 0z"/>
<path d="M4459 645 c-36 -19 -58 -57 -65 -107 -11 -90 60 -157 151 -143 55 8
107 48 103 79 -4 31 -39 31 -68 1 -38 -41 -98 -29 -114 23 -12 37 2 77 34 96
32 19 53 13 91 -25 16 -16 23 -18 35 -8 23 19 16 46 -19 73 -39 30 -105 35
-148 11z"/>
<path d="M4721 646 c-8 -9 -11 -52 -9 -127 l3 -114 30 0 30 0 6 80 c7 108 11
115 65 115 36 0 44 3 44 18 0 10 -5 23 -12 30 -16 16 -75 15 -81 0 -3 -10 -9
-10 -26 0 -27 15 -36 15 -50 -2z"/>
<path d="M4943 634 c-62 -48 -30 -81 41 -43 43 22 44 22 71 5 l28 -18 -29 -13
c-16 -6 -47 -15 -68 -18 -75 -12 -109 -76 -68 -127 22 -28 94 -33 135 -11 23
12 31 12 51 1 34 -17 60 -6 52 23 -3 12 -6 55 -6 95 0 70 -2 76 -31 103 -27
25 -39 29 -88 29 -45 0 -62 -5 -88 -26z m137 -132 c0 -30 -34 -54 -71 -50 -47
4 -51 34 -7 53 47 20 78 19 78 -3z"/>
<path d="M5746 644 c-3 -9 -6 -64 -6 -124 0 -120 9 -141 48 -114 19 13 22 24
22 93 0 89 6 98 65 103 49 4 60 31 20 50 -20 9 -34 9 -63 -2 -26 -9 -37 -10
-40 -1 -6 17 -39 13 -46 -5z"/>
<path d="M5990 642 c-61 -41 -82 -103 -57 -163 44 -103 174 -117 241 -27 29
40 26 121 -5 155 -51 54 -129 69 -179 35z m106 -55 c22 -19 27 -32 26 -62 -4
-101 -122 -102 -122 -1 0 46 6 58 35 74 28 16 30 15 61 -11z"/>
<path d="M6252 648 c-8 -8 -12 -50 -12 -125 0 -96 3 -113 17 -122 11 -6 24 -6
35 0 15 8 18 23 18 82 0 77 16 117 49 117 32 0 41 -22 41 -96 0 -89 5 -104 36
-104 30 0 48 39 39 82 -4 16 -4 46 0 68 5 32 12 41 32 47 41 10 54 -18 51
-105 -3 -63 0 -76 17 -88 46 -34 65 12 55 130 -6 77 -10 91 -31 107 -30 23
-72 24 -104 3 -21 -14 -26 -14 -54 0 -36 19 -74 20 -101 4 -16 -10 -24 -10
-40 0 -25 15 -33 15 -48 0z"/>
<path d="M7360 642 c-30 -20 -40 -32 -40 -50 0 -24 31 -24 75 -1 45 24 73 21
82 -7 4 -13 -40 -34 -71 -34 -34 0 -90 -42 -94 -69 -6 -38 18 -70 59 -83 32
-9 44 -8 78 9 36 18 42 18 64 5 37 -23 61 -9 53 29 -3 18 -6 61 -6 96 0 58 -3
68 -29 94 -26 26 -36 29 -88 28 -37 0 -67 -6 -83 -17z m127 -137 c10 -27 -27
-56 -66 -53 -50 4 -50 36 -1 54 47 17 60 17 67 -1z"/>
<path d="M7636 644 c-3 -9 -6 -65 -6 -125 0 -92 3 -111 16 -116 35 -13 49 11
54 95 3 45 10 86 17 93 7 7 29 12 50 13 47 1 58 30 18 48 -20 9 -34 9 -58 0
-21 -8 -35 -8 -41 -2 -15 15 -43 12 -50 -6z"/>
<path d="M7877 642 c-28 -18 -43 -45 -32 -62 9 -14 36 -12 54 4 26 23 64 28
86 12 27 -20 13 -31 -55 -45 -63 -14 -100 -43 -100 -81 0 -65 71 -97 141 -62
34 17 41 18 59 5 11 -8 28 -13 38 -11 15 3 17 14 13 93 -3 94 -18 137 -50 155
-31 16 -122 12 -154 -8z m128 -132 c3 -5 -2 -21 -11 -35 -14 -21 -24 -25 -53
-23 -27 2 -37 8 -39 23 -2 16 5 23 30 31 44 15 66 16 73 4z"/>
<path d="M8509 637 c-45 -30 -73 -87 -65 -132 14 -74 92 -124 171 -109 45 8
87 47 83 77 -4 32 -35 33 -59 3 -27 -34 -81 -36 -103 -4 -24 34 -20 85 8 113
28 28 58 25 97 -11 22 -21 27 -22 44 -10 17 12 18 17 7 40 -25 54 -124 72
-183 33z"/>
<path d="M8815 641 c-45 -27 -65 -63 -65 -117 0 -142 202 -183 257 -52 17 40
16 68 -2 112 -29 69 -124 98 -190 57z m105 -51 c29 -29 35 -67 17 -106 -14
-29 -22 -34 -51 -34 -43 0 -66 29 -66 81 0 29 6 43 26 58 33 26 49 26 74 1z"/>
<path d="M9070 641 c-13 -25 -13 -191 0 -225 5 -14 16 -26 24 -26 29 0 46 42
46 115 0 76 9 95 46 95 29 0 34 -17 34 -104 0 -60 4 -76 20 -91 34 -31 50 -5
50 79 0 85 17 119 58 114 27 -3 27 -4 30 -93 3 -98 16 -124 53 -104 17 8 19
23 19 114 0 103 0 104 -29 124 -35 25 -73 27 -107 4 -24 -15 -27 -15 -54 0
-35 21 -62 21 -101 2 -26 -14 -30 -14 -35 0 -9 21 -41 19 -54 -4z"/>
<path d="M2626 451 c-29 -32 5 -72 45 -51 24 13 25 39 2 56 -24 18 -27 17 -47
-5z"/>
<path d="M8332 458 c-17 -17 -15 -55 4 -62 42 -16 74 43 35 64 -24 13 -24 13
-39 -2z"/>
</g>
</svg>
