<?xml version="1.0" standalone="no"?>
<!DOCTYPE svg PUBLIC "-//W3C//DTD SVG 20010904//EN"
 "http://www.w3.org/TR/2001/REC-SVG-20010904/DTD/svg10.dtd">
<svg version="1.0" xmlns="http://www.w3.org/2000/svg"
 width="809.000000pt" height="957.000000pt" viewBox="0 0 809.000000 957.000000"
 preserveAspectRatio="xMidYMid meet">

<g transform="translate(0.000000,957.000000) scale(0.100000,-0.100000)"
fill="#000000" stroke="none">
<path d="M1270 8608 c-3 -2254 2 -7494 8 -7500 4 -4 1214 -7 2688 -6 l2679 3
0 3760 0 3760 -2687 3 -2688 2 0 -22z m5325 -3738 l0 -3735 -2640 0 -2640 0
-3 3724 c-1 2748 1 3727 9 3737 10 12 438 14 2643 12 l2631 -3 0 -3735z"/>
<path d="M5486 8328 c-3 -13 -6 -36 -6 -53 -1 -35 -11 -49 -66 -92 -44 -35
-87 -113 -105 -191 -14 -59 1 -187 24 -210 13 -12 21 -12 53 -2 134 44 211
185 202 373 -3 68 -9 100 -23 122 -23 38 -56 75 -66 75 -3 0 -9 -10 -13 -22z
m8 -257 c18 -28 -56 -151 -89 -151 -16 0 -20 16 -6 24 4 3 11 19 15 36 5 29
54 100 68 100 4 0 9 -4 12 -9z"/>
<path d="M5301 7642 c-33 -35 -49 -69 -108 -227 -17 -46 -12 -99 13 -126 14
-16 32 -19 106 -19 l89 0 15 35 c12 29 13 62 8 168 -7 136 -18 178 -53 197
-28 15 -31 14 -70 -28z"/>
<path d="M4905 7530 c-3 -5 -21 -10 -39 -10 -40 0 -54 -15 -228 -245 -67 -88
-124 -162 -128 -165 -3 -3 -30 -39 -60 -80 -30 -41 -59 -79 -63 -85 -15 -17
-199 -299 -262 -400 -86 -139 -101 -155 -139 -155 -18 0 -72 -9 -122 -20 -49
-11 -111 -25 -139 -30 -134 -24 -520 -133 -600 -169 -22 -10 -103 -42 -180
-71 -132 -49 -167 -66 -290 -135 -100 -56 -214 -148 -277 -223 -58 -70 -125
-215 -168 -367 -40 -141 -43 -163 -42 -301 1 -226 42 -388 150 -596 109 -210
397 -531 598 -664 31 -20 58 -43 60 -49 3 -7 0 -41 -7 -76 -6 -35 -14 -84 -18
-109 -5 -25 -17 -99 -29 -165 -22 -126 -42 -311 -42 -382 0 -23 -4 -45 -10
-48 -5 -3 -25 27 -44 67 -41 86 -72 131 -182 259 -102 119 -168 176 -259 223
-38 21 -86 47 -106 58 -45 27 -69 19 -69 -22 0 -41 74 -115 154 -155 76 -39
143 -99 202 -183 26 -37 62 -84 80 -106 19 -21 47 -73 65 -115 17 -42 43 -103
59 -136 15 -33 42 -94 59 -136 37 -89 58 -112 97 -107 21 2 34 13 51 43 21 37
23 52 23 214 0 175 6 244 41 491 29 196 45 280 57 292 7 7 55 -14 160 -71 83
-44 157 -81 166 -81 8 0 17 -4 21 -9 3 -5 49 -26 103 -47 53 -20 111 -42 127
-49 37 -16 300 -78 420 -99 157 -29 359 -41 460 -29 105 13 105 13 130 -67 9
-30 20 -64 25 -75 4 -11 27 -67 50 -125 23 -58 46 -114 50 -125 45 -107 63
-146 118 -255 53 -104 180 -312 202 -330 3 -3 17 -21 30 -40 13 -19 59 -77
103 -127 57 -68 85 -93 102 -93 17 0 30 -12 49 -44 14 -25 26 -54 26 -65 0
-22 57 -71 82 -71 9 0 26 9 39 19 l24 19 -23 108 c-61 286 -115 605 -128 754
-3 41 -13 120 -20 175 -8 55 -19 141 -24 190 -5 50 -14 112 -20 139 -6 27 -15
84 -20 125 -4 42 -10 84 -12 94 -2 13 17 28 75 60 42 23 119 71 170 107 99 70
303 267 352 340 16 25 32 47 35 50 13 13 60 112 83 175 34 94 60 326 38 339
-5 3 -12 23 -16 43 -7 39 -39 142 -54 178 -72 164 -115 229 -208 316 -48 45
-206 144 -280 176 -91 39 -201 73 -233 73 -48 0 -68 13 -51 34 8 9 23 16 35
16 30 0 195 60 299 109 49 22 93 41 98 41 23 0 248 153 290 197 69 73 79 94
79 168 0 56 -6 76 -39 143 -21 43 -58 97 -80 120 -83 86 -310 167 -534 191
-48 6 -92 13 -97 16 -18 11 -3 158 26 257 22 73 18 125 -11 153 -33 34 -70 33
-83 -2 -30 -80 -49 -166 -62 -292 -9 -83 -18 -101 -51 -101 -27 0 -29 23 -14
122 15 94 20 117 49 219 23 79 21 104 -10 128 -33 26 -56 27 -77 4 -32 -36
-64 -153 -87 -318 -19 -137 -11 -125 -86 -125 -90 0 -106 10 -98 63 3 23 9 60
14 82 8 38 28 148 51 280 6 33 15 74 19 90 5 17 16 66 25 110 25 122 64 296
75 336 15 56 12 94 -11 123 -21 26 -53 34 -64 16z m-80 -272 c-14 -76 -28
-135 -36 -158 -11 -30 -11 -34 -78 -385 -6 -27 -18 -95 -27 -150 -9 -55 -21
-105 -25 -111 -6 -7 -75 -14 -176 -18 -93 -3 -192 -9 -220 -12 -37 -5 -53 -3
-53 5 0 16 242 397 287 451 41 50 150 193 223 293 88 120 117 143 105 85z
m-197 -947 c11 -6 9 -32 -8 -137 -11 -71 -25 -156 -30 -189 -66 -417 -106
-1070 -94 -1542 3 -154 3 -273 -2 -273 -5 1 -24 21 -42 46 -18 24 -50 55 -71
69 -89 55 -289 78 -361 41 -100 -52 -128 -93 -137 -196 -5 -65 -4 -72 25 -118
18 -26 42 -58 54 -70 71 -66 261 -107 361 -78 55 16 134 67 147 96 4 8 12 25
18 37 7 13 12 30 12 38 0 8 4 15 9 15 5 0 12 -26 16 -57 3 -32 21 -137 40
-233 18 -96 39 -205 46 -241 20 -108 32 -103 -209 -96 -241 6 -403 31 -572 87
-14 5 -52 16 -85 25 -33 9 -95 29 -137 46 -87 33 -431 201 -466 228 l-23 17
41 170 c23 93 45 180 50 194 4 14 16 53 25 87 16 56 35 76 35 37 0 -28 43
-104 80 -142 21 -21 62 -48 91 -61 30 -13 63 -28 74 -34 10 -5 58 -12 106 -15
80 -4 91 -2 143 23 56 27 87 59 100 103 4 12 12 22 17 22 5 0 9 26 9 58 -1
121 -77 210 -227 266 -134 50 -256 37 -331 -34 -49 -47 -48 -40 96 365 56 159
90 251 102 280 4 11 16 40 25 65 10 25 24 59 31 75 7 17 22 55 33 85 40 106
233 477 346 665 40 67 85 144 100 172 43 84 7 75 415 102 63 4 120 8 125 9 6
1 16 -2 23 -7z m298 -21 c19 -8 20 -13 12 -77 -5 -37 -12 -169 -17 -293 -5
-124 -15 -279 -22 -345 -12 -111 -15 -122 -41 -147 -38 -36 -35 -69 12 -123
15 -18 18 -52 24 -280 3 -143 10 -291 15 -330 5 -38 11 -106 13 -150 l3 -79
-35 -24 c-110 -73 -156 -150 -147 -243 8 -71 41 -160 74 -199 33 -40 116 -94
173 -114 49 -17 228 -22 258 -7 69 34 91 47 120 75 75 69 122 169 122 255 0
28 -12 71 -29 111 -23 52 -38 72 -77 98 -34 23 -57 32 -78 30 l-31 -3 -6 100
c-4 55 -12 165 -17 245 -6 80 -12 206 -14 280 l-3 135 55 -3 c49 -2 147 -31
220 -65 42 -19 193 -115 220 -139 76 -69 122 -147 168 -279 72 -211 64 -361
-31 -539 -72 -135 -229 -307 -375 -411 -171 -122 -539 -283 -699 -306 -42 -6
-43 -5 -43 24 0 16 -7 52 -15 79 -8 27 -15 59 -15 72 0 12 -4 30 -9 40 -11 22
-31 119 -41 207 -4 39 -15 113 -23 165 -29 171 -39 496 -27 841 10 291 46 759
70 924 6 39 20 133 31 210 35 245 39 267 45 277 6 10 124 1 160 -12z m214 -71
c0 -27 -4 -69 -9 -92 -15 -65 -34 -285 -40 -461 -5 -135 -9 -160 -23 -170 -35
-21 -38 3 -23 184 8 96 15 220 15 275 1 114 15 289 25 304 3 6 17 11 31 11 22
0 24 -4 24 -51z m-1210 17 c0 -7 -9 -25 -20 -39 -11 -14 -20 -28 -20 -32 0 -4
-17 -37 -39 -73 -127 -219 -281 -514 -341 -657 -38 -87 -154 -395 -175 -460
-9 -27 -20 -59 -25 -70 -5 -11 -25 -65 -43 -120 -19 -55 -44 -127 -55 -160
-11 -33 -32 -100 -47 -150 -15 -49 -35 -117 -45 -150 -10 -33 -37 -138 -61
-234 -24 -98 -48 -175 -56 -178 -29 -11 -291 227 -400 362 -153 191 -199 272
-259 450 l-37 110 -1 190 c-1 205 4 237 63 400 65 181 122 268 246 372 46 38
239 145 310 170 76 28 323 116 350 125 42 14 312 88 360 99 91 20 271 58 283
58 6 1 12 -5 12 -13z m1585 -18 c44 -11 95 -23 113 -25 17 -3 32 -9 32 -14 0
-5 7 -9 16 -9 20 0 101 -37 138 -63 34 -24 76 -109 76 -155 0 -18 -7 -46 -15
-61 -15 -29 -112 -121 -128 -121 -5 0 -32 -15 -60 -34 -78 -51 -148 -85 -282
-136 -44 -17 -89 -35 -100 -40 -11 -5 -29 -10 -40 -11 -49 -4 -48 -7 -41 119
19 310 45 554 62 568 18 15 136 6 229 -18z m-428 -1068 c2 -52 8 -156 14 -230
6 -74 15 -227 20 -340 5 -113 12 -230 15 -261 5 -45 3 -57 -9 -62 -9 -3 -20 0
-25 6 -26 34 -94 866 -77 954 5 30 9 34 33 31 l27 -3 2 -95z m236 -849 c43
-56 48 -100 18 -159 -26 -49 -97 -117 -143 -137 -96 -39 -236 1 -298 87 -48
66 -41 147 17 206 17 17 30 8 38 -26 13 -56 58 -106 117 -130 l57 -22 56 21
c72 27 86 49 87 138 1 39 4 71 8 71 3 0 23 -22 43 -49z m-1071 -91 c29 -11 70
-34 91 -51 31 -26 37 -36 37 -70 0 -56 -14 -77 -67 -100 -68 -29 -136 -25
-213 14 -53 26 -69 40 -87 75 -24 48 -21 72 13 105 48 47 143 58 226 27z m983
-858 c4 -53 16 -167 27 -252 27 -199 33 -300 19 -300 -6 0 -11 8 -11 19 0 10
-7 43 -16 72 -8 30 -20 72 -26 94 -6 22 -16 60 -23 85 -7 25 -17 68 -23 95
-33 156 -44 202 -53 217 -5 10 -9 22 -9 28 0 13 81 49 96 43 8 -3 15 -40 19
-101z m-191 12 c3 -9 6 -32 6 -52 1 -71 25 -184 141 -647 16 -66 44 -158 61
-205 34 -95 45 -140 32 -140 -5 0 -16 11 -24 24 -8 13 -42 64 -75 113 -33 49
-66 98 -73 109 -29 45 -138 277 -201 432 -116 281 -129 332 -84 332 10 0 52
11 93 24 90 29 116 31 124 10z"/>
<path d="M2715 4934 c-52 -19 -65 -30 -102 -84 -39 -58 -47 -97 -33 -164 16
-78 59 -136 143 -194 95 -66 137 -82 211 -82 118 0 151 20 219 132 39 63 11
189 -60 268 -32 37 -154 111 -208 127 -52 16 -120 15 -170 -3z"/>
<path d="M5138 7209 c-26 -15 -22 -32 20 -78 34 -38 43 -43 107 -53 39 -6 86
-12 105 -12 35 -1 35 0 38 45 4 59 -15 76 -105 95 -79 16 -141 18 -165 3z"/>
<path d="M5125 7021 c-42 -9 -42 -33 -2 -78 27 -30 51 -43 111 -62 42 -12 83
-20 91 -17 10 4 15 20 15 50 0 52 -21 72 -103 100 -50 17 -63 18 -112 7z"/>
<path d="M5605 3353 c-65 -64 -18 -173 75 -173 56 0 87 15 106 51 30 58 -1
139 -53 139 -30 0 -30 -23 2 -44 28 -18 34 -66 12 -85 -35 -28 -107 -21 -129
13 -15 23 -7 56 17 72 14 9 25 23 25 30 0 19 -35 18 -55 -3z"/>
<path d="M5697 3053 c-13 -13 -19 -14 -29 -5 -18 18 -53 15 -71 -6 -12 -13
-17 -37 -17 -85 l0 -67 104 0 c118 0 115 -3 109 89 -5 81 -52 118 -96 74z
m-38 -47 c7 -8 11 -27 9 -43 -2 -22 -8 -28 -28 -28 -20 0 -26 6 -28 28 -3 27
12 57 28 57 4 0 13 -6 19 -14z m99 -33 c3 -42 2 -43 -27 -43 -29 0 -31 2 -31
38 0 45 6 54 35 50 16 -2 21 -12 23 -45z"/>
<path d="M5680 2743 c-95 -39 -114 -52 -105 -75 7 -17 176 -88 208 -88 27 0
20 28 -10 42 -23 11 -29 21 -31 55 -3 37 0 43 25 55 30 14 38 42 13 45 -8 1
-53 -14 -100 -34z m30 -68 c0 -28 -4 -29 -50 -14 l-33 12 24 13 c39 21 59 17
59 -11z"/>
<path d="M2086 1625 c-4 -14 -13 -25 -21 -25 -18 0 -20 -27 -2 -33 9 -3 9 -9
1 -23 -12 -21 -7 -84 7 -84 5 0 11 11 15 25 3 14 10 25 15 25 5 0 9 -11 9 -25
0 -16 6 -25 15 -25 9 0 15 9 15 21 0 12 8 23 20 26 25 7 25 12 3 29 -17 13
-17 15 -1 27 13 10 16 23 11 51 -6 39 -26 44 -31 8 -5 -31 -32 -28 -32 3 0 14
-4 25 -9 25 -5 0 -12 -11 -15 -25z m42 -67 c-6 -18 -28 -21 -28 -4 0 9 7 16
16 16 9 0 14 -5 12 -12z"/>
<path d="M2257 1643 c-10 -16 -67 -164 -67 -173 0 -20 31 -9 40 14 7 20 15 24
37 22 15 -2 33 -4 39 -5 7 0 14 -10 17 -21 6 -22 37 -28 37 -7 -1 6 -15 48
-33 92 -29 74 -55 102 -70 78z m37 -90 c6 -20 4 -23 -18 -23 -30 0 -29 -2 -15
40 12 34 19 30 33 -17z"/>
<path d="M2398 1644 c-5 -4 -8 -47 -8 -96 0 -72 3 -88 15 -88 8 0 16 10 17 23
0 12 1 29 2 37 2 32 35 21 61 -19 25 -40 55 -55 55 -27 0 7 -9 25 -20 39 l-21
26 21 21 c42 42 15 81 -61 88 -30 2 -57 0 -61 -4z m92 -39 c17 -20 4 -35 -31
-35 -24 0 -29 4 -29 25 0 20 5 25 24 25 13 0 29 -7 36 -15z"/>
<path d="M2550 1640 c-13 -9 -13 -11 0 -20 8 -5 23 -10 32 -10 14 0 18 -12 20
-72 2 -57 6 -73 18 -73 12 0 16 16 18 73 2 39 6 72 10 73 44 4 57 13 47 28 -8
14 -125 14 -145 1z"/>
<path d="M2757 1643 c-18 -29 -66 -166 -62 -174 10 -15 25 -11 32 9 15 41 74
45 91 7 12 -27 30 -33 37 -12 8 19 -60 172 -78 175 -8 2 -17 -1 -20 -5z m43
-101 c0 -8 -9 -12 -22 -10 -23 3 -26 18 -12 58 4 11 9 9 19 -10 8 -14 14 -31
15 -38z"/>
<path d="M2897 1643 c-4 -3 -7 -46 -7 -95 0 -72 3 -88 15 -88 12 0 15 13 15
55 0 30 3 55 8 55 4 -1 23 -24 42 -53 20 -28 43 -53 53 -55 15 -3 17 7 17 92
0 77 -3 96 -15 96 -10 0 -15 -16 -17 -62 l-3 -63 -43 63 c-42 60 -52 69 -65
55z"/>
<path d="M3091 1636 c-8 -9 -11 -43 -9 -93 l3 -78 39 -3 c92 -8 142 60 105
142 -19 41 -113 62 -138 32z m101 -40 c13 -19 8 -74 -8 -90 -8 -9 -26 -16 -40
-16 -23 0 -24 3 -24 59 0 39 4 61 13 64 17 5 50 -4 59 -17z"/>
<path d="M3315 1638 c-33 -18 -45 -40 -45 -85 0 -56 33 -93 83 -93 34 0 77 33
77 58 0 19 -28 14 -40 -8 -27 -50 -100 -1 -85 57 14 56 51 70 82 33 19 -21 43
-27 43 -10 0 6 -11 22 -25 35 -26 27 -58 31 -90 13z"/>
<path d="M3472 1642 c-20 -13 -12 -177 8 -177 10 0 16 12 18 38 4 49 27 47 61
-6 13 -20 30 -37 38 -37 19 0 16 34 -6 62 -19 24 -19 24 0 36 23 15 25 55 4
72 -19 16 -105 24 -123 12z m96 -49 c3 -20 -1 -23 -32 -23 -32 0 -36 3 -36 26
0 23 3 25 33 22 24 -2 33 -8 35 -25z"/>
<path d="M3700 1647 c0 -1 -16 -41 -35 -87 -24 -57 -32 -87 -25 -94 7 -7 18
-2 33 17 28 34 74 34 90 0 11 -26 37 -31 37 -8 0 18 -49 145 -63 163 -8 10
-37 18 -37 9z m34 -79 c9 -34 8 -38 -12 -38 -27 0 -32 9 -20 36 14 30 24 30
32 2z"/>
<path d="M3847 1643 c-16 -4 -17 -15 -15 -91 2 -69 6 -87 18 -87 10 0 16 12
18 38 3 35 5 37 38 37 24 0 34 5 34 15 0 10 -11 15 -35 15 -31 0 -35 3 -35 25
0 23 4 25 46 25 32 0 44 4 42 12 -5 13 -78 20 -111 11z"/>
<path d="M3975 1640 c-10 -16 4 -30 31 -30 23 0 24 -2 24 -75 0 -60 3 -75 15
-75 12 0 15 15 15 74 0 74 0 75 28 78 16 2 27 9 27 18 0 12 -15 16 -67 18 -38
2 -69 -1 -73 -8z"/>
<path d="M4157 1644 c-4 -4 -7 -47 -7 -96 0 -72 3 -88 15 -88 11 0 15 11 15
39 0 39 1 40 37 43 53 4 56 28 3 28 -37 0 -41 2 -38 23 2 18 10 23 46 25 60 4
49 26 -14 30 -27 2 -53 0 -57 -4z"/>
<path d="M4312 1642 c-20 -13 -12 -177 8 -177 10 0 16 12 18 38 4 49 27 47 61
-6 40 -61 70 -44 32 19 -18 30 -18 31 0 42 23 15 25 55 4 72 -19 16 -105 24
-123 12z m96 -49 c3 -20 -1 -23 -32 -23 -32 0 -36 3 -36 26 0 23 3 25 33 22
24 -2 33 -8 35 -25z"/>
<path d="M4525 1638 c-33 -19 -44 -41 -45 -86 0 -83 84 -122 146 -69 23 20 27
32 27 72 0 40 -4 52 -27 72 -29 25 -69 29 -101 11z m79 -40 c32 -45 9 -108
-39 -108 -32 0 -45 19 -45 67 0 29 5 45 18 52 27 16 50 13 66 -11z"/>
<path d="M4703 1643 c-9 -3 -13 -32 -13 -94 0 -72 3 -89 15 -89 12 0 15 15 16
68 0 37 2 63 4 57 2 -5 11 -36 20 -68 22 -79 43 -75 66 13 l17 65 1 -67 c1
-54 4 -68 16 -68 13 0 15 15 13 93 -3 83 -5 92 -22 92 -22 0 -31 -15 -47 -75
l-12 -45 -16 50 c-24 74 -29 80 -58 68z"/>
<path d="M4916 1637 c-14 -10 -16 -26 -14 -92 l3 -80 34 -3 c63 -6 100 6 107
35 4 14 2 33 -3 42 -5 9 -8 33 -5 53 4 33 1 39 -23 48 -36 14 -78 13 -99 -3z
m83 -26 c23 -15 5 -41 -29 -41 -25 0 -30 4 -30 25 0 19 5 25 23 25 12 0 28 -4
36 -9z m15 -80 c13 -21 -7 -41 -40 -41 -30 0 -34 3 -34 25 0 22 4 25 34 25 19
0 37 -4 40 -9z"/>
<path d="M5090 1555 c0 -78 3 -95 15 -95 11 0 15 11 15 40 0 40 0 40 39 40 39
0 40 -1 43 -37 2 -27 8 -39 21 -41 15 -3 17 6 17 92 0 75 -3 96 -14 96 -16 0
-26 -21 -26 -56 0 -23 -3 -25 -37 -22 -25 2 -38 8 -39 18 -1 8 -2 25 -3 38 -1
12 -7 22 -16 22 -12 0 -15 -17 -15 -95z"/>
<path d="M5330 1630 c-15 -29 -60 -148 -60 -160 0 -19 27 -10 37 13 15 33 77
34 92 1 11 -25 26 -31 35 -15 3 4 -9 46 -27 92 -34 88 -56 108 -77 69z m50
-96 c0 -2 -11 -4 -25 -4 -28 0 -30 6 -14 47 l11 28 14 -34 c8 -18 14 -35 14
-37z"/>
<path d="M5475 1639 c-9 -14 -15 -147 -8 -166 3 -7 11 -13 19 -13 10 0 14 12
14 40 0 33 3 40 20 40 12 0 29 -15 45 -40 14 -22 29 -40 35 -40 18 0 18 17 -1
49 -17 29 -18 34 -4 47 16 17 20 51 6 72 -12 19 -116 28 -126 11z m92 -30 c20
-20 3 -39 -33 -39 -26 0 -34 4 -34 18 0 10 3 22 7 25 10 11 48 8 60 -4z"/>
<path d="M5703 1638 c-14 -18 -63 -145 -63 -163 0 -23 26 -18 38 9 14 32 66
30 92 -4 14 -18 22 -22 30 -14 8 8 0 35 -26 97 -35 84 -51 101 -71 75z m31
-64 c11 -29 6 -44 -14 -44 -11 0 -20 6 -20 14 0 21 11 46 20 46 4 0 11 -7 14
-16z"/>
<path d="M5805 1640 c-9 -15 3 -30 25 -30 17 0 19 -9 22 -72 2 -57 6 -73 18
-73 12 0 16 16 18 71 3 71 3 72 33 78 19 3 29 11 27 18 -6 16 -133 23 -143 8z"/>
</g>
</svg>
